# xmcd CD database file
# Generated: nie sie 29 16:27:53 2004 by KSCD
# 
# Track frame offsets:
#       150
#       18304
#       36474
#       56072
#       75036
#       92252
#       108765
#       125885
#       142797
#       157617
#       174739
#       192192
#       206718
#       224032
#       244532
#       262489
#       280522
#       303085
#       314751
#       332809
#
# Disc length: 4621 seconds
#
# Revision: 1
# Processed by: cddbd v1.5.1PL0 Copyright (c) Steve Scherf et al.
# Submitted via: Kscd 1.3.3
#
DISCID=17120b14
DTITLE=hop - hip
DYEAR=1900
DGENRE=
TTITLE0=skarby
TTITLE1=Liber_feat_Marian_jedna_z_drog
TTITLE2=Jestem Tu
TTITLE3=Powodzenia
TTITLE4=?eby nie by?o ft. Liber
TTITLE5=Pomnik [www.Mp3Traxx.Tk]
TTITLE6=Jedno Jest Zycie
TTITLE7=Aro - Nie Odpuszczam Sobie (go
TTITLE8=Dranie (Feat.Doniu)
TTITLE9=pi?? dwa - konfrontacje
TTITLE10=Przyjazn
TTITLE11=15 eMCe (Radio)
TTITLE12=Plany
TTITLE13=Rapnastyk
TTITLE14=Mezo - 20 lat
TTITLE15=trzeciwymiar
TTITLE16=50263
TTITLE17=Marzenia
TTITLE18=DKA - Jakby To Bylo
TTITLE19=Kochana Polsko
EXTD=
EXTT0=
EXTT1=
EXTT2=
EXTT3=
EXTT4=
EXTT5=
EXTT6=
EXTT7=
EXTT8=
EXTT9=
EXTT10=
EXTT11=
EXTT12=
EXTT13=
EXTT14=
EXTT15=
EXTT16=
EXTT17=
EXTT18=
EXTT19=
PLAYORDER=
